<?xml version="1.0" encoding="UTF-8" standalone="no"?><svg xmlns="http://www.w3.org/2000/svg" xmlns:xlink="http://www.w3.org/1999/xlink" contentScriptType="application/ecmascript" contentStyleType="text/css" height="353px" preserveAspectRatio="none" style="width:496px;height:353px;" version="1.1" viewBox="0 0 496 353" width="496px" zoomAndPan="magnify"><defs><filter height="300%" id="f1p3h8mnjgf1te" width="300%" x="-1" y="-1"><feGaussianBlur result="blurOut" stdDeviation="2.0"/><feColorMatrix in="blurOut" result="blurOut2" type="matrix" values="0 0 0 0 0 0 0 0 0 0 0 0 0 0 0 0 0 0 .4 0"/><feOffset dx="4.0" dy="4.0" in="blurOut2" result="blurOut3"/><feBlend in="SourceGraphic" in2="blurOut3" mode="normal"/></filter></defs><g><!--cluster ohm.softa.a08.filtering--><polygon fill="#FFFFFF" filter="url(#f1p3h8mnjgf1te)" points="14,16,183,16,190,38.4883,474,38.4883,474,341,14,341,14,16" style="stroke: #000000; stroke-width: 1.5;"/><line style="stroke: #000000; stroke-width: 1.5;" x1="14" x2="190" y1="38.4883" y2="38.4883"/><text fill="#000000" font-family="sans-serif" font-size="14" font-weight="bold" lengthAdjust="spacingAndGlyphs" textLength="163" x="18" y="31.5352">ohm.softa.a08.filtering</text><!--class MealsFilter--><rect fill="#FEFECE" filter="url(#f1p3h8mnjgf1te)" height="60.9551" id="MealsFilter" style="stroke: #A80036; stroke-width: 1.5;" width="210" x="90" y="43"/><ellipse cx="160.25" cy="59" fill="#B4A7E5" rx="11" ry="11" style="stroke: #A80036; stroke-width: 1.0;"/><path d="M156.6777,55.2651 L156.6777,53.1069 L164.0571,53.1069 L164.0571,55.2651 L161.5918,55.2651 L161.5918,63.3418 L164.0571,63.3418 L164.0571,65.5 L156.6777,65.5 L156.6777,63.3418 L159.1431,63.3418 L159.1431,55.2651 Z "/><text fill="#000000" font-family="sans-serif" font-size="12" font-style="italic" lengthAdjust="spacingAndGlyphs" textLength="61" x="180.75" y="63.5352">MealsFilter</text><line style="stroke: #A80036; stroke-width: 1.5;" x1="91" x2="299" y1="75" y2="75"/><line style="stroke: #A80036; stroke-width: 1.5;" x1="91" x2="299" y1="83" y2="83"/><text fill="#000000" font-family="sans-serif" font-size="11" lengthAdjust="spacingAndGlyphs" textLength="198" x="96" y="97.6348">filter(meals: List&lt;Meal&gt;): List&lt;Meal&gt;</text><!--class AllMealsStrategy--><rect fill="#FEFECE" filter="url(#f1p3h8mnjgf1te)" height="48" id="AllMealsStrategy" style="stroke: #A80036; stroke-width: 1.5;" width="125" x="22.5" y="170.5"/><ellipse cx="37.5" cy="186.5" fill="#ADD1B2" rx="11" ry="11" style="stroke: #A80036; stroke-width: 1.0;"/><path d="M39.9731,192.6431 Q39.3921,192.9419 38.7529,193.0913 Q38.1138,193.2407 37.4082,193.2407 Q34.9014,193.2407 33.5815,191.5889 Q32.2617,189.937 32.2617,186.8159 Q32.2617,183.6865 33.5815,182.0347 Q34.9014,180.3828 37.4082,180.3828 Q38.1138,180.3828 38.7612,180.5322 Q39.4087,180.6816 39.9731,180.9805 L39.9731,183.7031 Q39.3423,183.1221 38.7488,182.8523 Q38.1553,182.5825 37.5244,182.5825 Q36.1797,182.5825 35.4949,183.6492 Q34.8101,184.7158 34.8101,186.8159 Q34.8101,188.9077 35.4949,189.9744 Q36.1797,191.041 37.5244,191.041 Q38.1553,191.041 38.7488,190.7712 Q39.3423,190.5015 39.9731,189.9204 Z "/><text fill="#000000" font-family="sans-serif" font-size="12" lengthAdjust="spacingAndGlyphs" textLength="93" x="51.5" y="191.0352">AllMealsStrategy</text><line style="stroke: #A80036; stroke-width: 1.5;" x1="23.5" x2="146.5" y1="202.5" y2="202.5"/><line style="stroke: #A80036; stroke-width: 1.5;" x1="23.5" x2="146.5" y1="210.5" y2="210.5"/><!--class FilterBase--><rect fill="#FEFECE" filter="url(#f1p3h8mnjgf1te)" height="60.9551" id="FilterBase" style="stroke: #A80036; stroke-width: 1.5;" width="162" x="183" y="164"/><ellipse cx="232.25" cy="180" fill="#A9DCDF" rx="11" ry="11" style="stroke: #A80036; stroke-width: 1.0;"/><path d="M232.3633,175.5981 L231.2095,180.6699 L233.5254,180.6699 Z M230.8691,173.3569 L233.8657,173.3569 L237.2109,185.75 L234.7622,185.75 L233.9985,182.687 L230.7197,182.687 L229.9727,185.75 L227.5239,185.75 Z "/><text fill="#000000" font-family="sans-serif" font-size="12" font-style="italic" lengthAdjust="spacingAndGlyphs" textLength="55" x="252.75" y="184.5352">FilterBase</text><line style="stroke: #A80036; stroke-width: 1.5;" x1="184" x2="344" y1="196" y2="196"/><line style="stroke: #A80036; stroke-width: 1.5;" x1="184" x2="344" y1="204" y2="204"/><polygon fill="#FFFF44" points="194,210.9775,198,214.9775,194,218.9775,190,214.9775" style="stroke: #B38D22; stroke-width: 1.0;"/><text fill="#000000" font-family="sans-serif" font-size="11" lengthAdjust="spacingAndGlyphs" textLength="136" x="203" y="218.6348">include(m: Meal): boolean</text><!--class VegetarianStrategy--><rect fill="#FEFECE" filter="url(#f1p3h8mnjgf1te)" height="48" id="VegetarianStrategy" style="stroke: #A80036; stroke-width: 1.5;" width="140" x="22" y="285"/><ellipse cx="37" cy="301" fill="#ADD1B2" rx="11" ry="11" style="stroke: #A80036; stroke-width: 1.0;"/><path d="M39.4731,307.1431 Q38.8921,307.4419 38.2529,307.5913 Q37.6138,307.7407 36.9082,307.7407 Q34.4014,307.7407 33.0815,306.0889 Q31.7617,304.437 31.7617,301.3159 Q31.7617,298.1865 33.0815,296.5347 Q34.4014,294.8828 36.9082,294.8828 Q37.6138,294.8828 38.2612,295.0322 Q38.9087,295.1816 39.4731,295.4805 L39.4731,298.2031 Q38.8423,297.6221 38.2488,297.3523 Q37.6553,297.0825 37.0244,297.0825 Q35.6797,297.0825 34.9949,298.1492 Q34.3101,299.2158 34.3101,301.3159 Q34.3101,303.4077 34.9949,304.4744 Q35.6797,305.541 37.0244,305.541 Q37.6553,305.541 38.2488,305.2712 Q38.8423,305.0015 39.4731,304.4204 Z "/><text fill="#000000" font-family="sans-serif" font-size="12" lengthAdjust="spacingAndGlyphs" textLength="108" x="51" y="305.5352">VegetarianStrategy</text><line style="stroke: #A80036; stroke-width: 1.5;" x1="23" x2="161" y1="317" y2="317"/><line style="stroke: #A80036; stroke-width: 1.5;" x1="23" x2="161" y1="325" y2="325"/><!--class NoPorkStrategy--><rect fill="#FEFECE" filter="url(#f1p3h8mnjgf1te)" height="48" id="NoPorkStrategy" style="stroke: #A80036; stroke-width: 1.5;" width="120" x="197" y="285"/><ellipse cx="212" cy="301" fill="#ADD1B2" rx="11" ry="11" style="stroke: #A80036; stroke-width: 1.0;"/><path d="M214.4731,307.1431 Q213.8921,307.4419 213.2529,307.5913 Q212.6138,307.7407 211.9082,307.7407 Q209.4014,307.7407 208.0815,306.0889 Q206.7617,304.437 206.7617,301.3159 Q206.7617,298.1865 208.0815,296.5347 Q209.4014,294.8828 211.9082,294.8828 Q212.6138,294.8828 213.2612,295.0322 Q213.9087,295.1816 214.4731,295.4805 L214.4731,298.2031 Q213.8423,297.6221 213.2488,297.3523 Q212.6553,297.0825 212.0244,297.0825 Q210.6797,297.0825 209.9949,298.1492 Q209.3101,299.2158 209.3101,301.3159 Q209.3101,303.4077 209.9949,304.4744 Q210.6797,305.541 212.0244,305.541 Q212.6553,305.541 213.2488,305.2712 Q213.8423,305.0015 214.4731,304.4204 Z "/><text fill="#000000" font-family="sans-serif" font-size="12" lengthAdjust="spacingAndGlyphs" textLength="88" x="226" y="305.5352">NoPorkStrategy</text><line style="stroke: #A80036; stroke-width: 1.5;" x1="198" x2="316" y1="317" y2="317"/><line style="stroke: #A80036; stroke-width: 1.5;" x1="198" x2="316" y1="325" y2="325"/><!--class NoSoyStrategy--><rect fill="#FEFECE" filter="url(#f1p3h8mnjgf1te)" height="48" id="NoSoyStrategy" style="stroke: #A80036; stroke-width: 1.5;" width="113" x="352.5" y="285"/><ellipse cx="367.5" cy="301" fill="#ADD1B2" rx="11" ry="11" style="stroke: #A80036; stroke-width: 1.0;"/><path d="M369.9731,307.1431 Q369.3921,307.4419 368.7529,307.5913 Q368.1138,307.7407 367.4082,307.7407 Q364.9014,307.7407 363.5815,306.0889 Q362.2617,304.437 362.2617,301.3159 Q362.2617,298.1865 363.5815,296.5347 Q364.9014,294.8828 367.4082,294.8828 Q368.1138,294.8828 368.7612,295.0322 Q369.4087,295.1816 369.9731,295.4805 L369.9731,298.2031 Q369.3423,297.6221 368.7488,297.3523 Q368.1553,297.0825 367.5244,297.0825 Q366.1797,297.0825 365.4949,298.1492 Q364.8101,299.2158 364.8101,301.3159 Q364.8101,303.4077 365.4949,304.4744 Q366.1797,305.541 367.5244,305.541 Q368.1553,305.541 368.7488,305.2712 Q369.3423,305.0015 369.9731,304.4204 Z "/><text fill="#000000" font-family="sans-serif" font-size="12" lengthAdjust="spacingAndGlyphs" textLength="81" x="381.5" y="305.5352">NoSoyStrategy</text><line style="stroke: #A80036; stroke-width: 1.5;" x1="353.5" x2="464.5" y1="317" y2="317"/><line style="stroke: #A80036; stroke-width: 1.5;" x1="353.5" x2="464.5" y1="325" y2="325"/><!--link MealsFilter to AllMealsStrategy--><path d="M153.5627,119.081 C137.6834,136.5483 120.1954,155.7851 106.8558,170.4587 " fill="none" id="MealsFilter-AllMealsStrategy" style="stroke: #A80036; stroke-width: 1.0; stroke-dasharray: 7.0,7.0;"/><polygon fill="none" points="148.6093,114.1235,167.2424,104.0334,158.9685,123.541,148.6093,114.1235" style="stroke: #A80036; stroke-width: 1.0;"/><!--link MealsFilter to FilterBase--><path d="M222.322,121.4125 C230.4996,135.7528 239.2401,151.0804 246.594,163.9764 " fill="none" id="MealsFilter-FilterBase" style="stroke: #A80036; stroke-width: 1.0; stroke-dasharray: 7.0,7.0;"/><polygon fill="none" points="216.2382,124.8747,212.4116,104.0334,228.3998,117.9395,216.2382,124.8747" style="stroke: #A80036; stroke-width: 1.0;"/><!--link FilterBase to VegetarianStrategy--><path d="M201.0476,236.4073 C176.5012,252.7477 149.2503,270.8886 128.1305,284.948 " fill="none" id="FilterBase-VegetarianStrategy" style="stroke: #A80036; stroke-width: 1.0;"/><polygon fill="none" points="197.3797,230.4398,217.9072,225.1839,205.1377,242.0937,197.3797,230.4398" style="stroke: #A80036; stroke-width: 1.0;"/><!--link FilterBase to NoPorkStrategy--><path d="M260.8983,245.2346 C260.0581,258.9779 259.1869,273.2288 258.4817,284.7634 " fill="none" id="FilterBase-NoPorkStrategy" style="stroke: #A80036; stroke-width: 1.0;"/><polygon fill="none" points="253.9167,244.7194,262.1241,225.1839,267.8906,245.5738,253.9167,244.7194" style="stroke: #A80036; stroke-width: 1.0;"/><!--link FilterBase to NoSoyStrategy--><path d="M318.8167,237.7863 C338.9571,253.6903 361.0365,271.1254 378.3074,284.7634 " fill="none" id="FilterBase-NoSoyStrategy" style="stroke: #A80036; stroke-width: 1.0;"/><polygon fill="none" points="314.2155,243.0723,302.8573,225.1839,322.8918,232.0849,314.2155,243.0723" style="stroke: #A80036; stroke-width: 1.0;"/><!--
@startuml FilteringStrategies

package ohm.softa.a08.filtering {

    interface MealsFilter {
        filter(meals: List<Meal>): List<Meal>
    }

    class AllMealsStrategy implements MealsFilter {

    }

    abstract class FilterBase implements MealsFilter {
        #include(m: Meal): boolean
    }

    class VegetarianStrategy extends FilterBase {

    }

    class NoPorkStrategy extends FilterBase {

    }

    class NoSoyStrategy extends FilterBase {

    }
}

@enduml

PlantUML version 1.2019.03(Sun Mar 10 12:04:44 CET 2019)
(GPL source distribution)
Java Runtime: OpenJDK Runtime Environment
JVM: OpenJDK 64-Bit Server VM
Java Version: 12.0.1+12
Operating System: Mac OS X
OS Version: 10.14.4
Default Encoding: UTF-8
Language: en
Country: GB
--></g></svg>