<?xml version="1.0" encoding="UTF-8" standalone="no"?><svg xmlns="http://www.w3.org/2000/svg" xmlns:xlink="http://www.w3.org/1999/xlink" contentScriptType="application/ecmascript" contentStyleType="text/css" height="124px" preserveAspectRatio="none" style="width:266px;height:124px;" version="1.1" viewBox="0 0 266 124" width="266px" zoomAndPan="magnify"><defs><filter height="300%" id="fv8qni1w3as6g" width="300%" x="-1" y="-1"><feGaussianBlur result="blurOut" stdDeviation="2.0"/><feColorMatrix in="blurOut" result="blurOut2" type="matrix" values="0 0 0 0 0 0 0 0 0 0 0 0 0 0 0 0 0 0 .4 0"/><feOffset dx="4.0" dy="4.0" in="blurOut2" result="blurOut3"/><feBlend in="SourceGraphic" in2="blurOut3" mode="normal"/></filter></defs><g><!--cluster ohm.softa.a08.filtering--><polygon fill="#FFFFFF" filter="url(#fv8qni1w3as6g)" points="14,16,183,16,190,38.4883,244,38.4883,244,112,14,112,14,16" style="stroke: #000000; stroke-width: 1.5;"/><line style="stroke: #000000; stroke-width: 1.5;" x1="14" x2="190" y1="38.4883" y2="38.4883"/><text fill="#000000" font-family="sans-serif" font-size="14" font-weight="bold" lengthAdjust="spacingAndGlyphs" textLength="163" x="18" y="31.5352">ohm.softa.a08.filtering</text><!--class MealsFilterFactory--><rect fill="#FEFECE" filter="url(#fv8qni1w3as6g)" height="60.9551" id="MealsFilterFactory" style="stroke: #A80036; stroke-width: 1.5;" width="214" x="22" y="43"/><ellipse cx="73.75" cy="59" fill="#A9DCDF" rx="11" ry="11" style="stroke: #A80036; stroke-width: 1.0;"/><path d="M73.8633,54.5981 L72.7095,59.6699 L75.0254,59.6699 Z M72.3691,52.3569 L75.3657,52.3569 L78.7109,64.75 L76.2622,64.75 L75.4985,61.687 L72.2197,61.687 L71.4727,64.75 L69.0239,64.75 Z "/><text fill="#000000" font-family="sans-serif" font-size="12" font-style="italic" lengthAdjust="spacingAndGlyphs" textLength="102" x="94.25" y="63.5352">MealsFilterFactory</text><line style="stroke: #A80036; stroke-width: 1.5;" x1="23" x2="235" y1="75" y2="75"/><line style="stroke: #A80036; stroke-width: 1.5;" x1="23" x2="235" y1="83" y2="83"/><ellipse cx="33" cy="94.9775" fill="#84BE84" rx="3" ry="3" style="stroke: #038048; stroke-width: 1.0;"/><text fill="#000000" font-family="sans-serif" font-size="11" lengthAdjust="spacingAndGlyphs" text-decoration="underline" textLength="188" x="42" y="97.6348">getStrategy(key: String): MealsFilter</text><line style="stroke: #000000; stroke-width: 1.0;" x1="42" x2="230" y1="99.6348" y2="99.6348"/><!--
@startuml FilteringFactory

package ohm.softa.a08.filtering {
    abstract class MealsFilterFactory {
        +{static} getStrategy(key: String): MealsFilter
    }
}

@enduml

PlantUML version 1.2019.03(Sun Mar 10 12:04:44 CET 2019)
(GPL source distribution)
Java Runtime: OpenJDK Runtime Environment
JVM: OpenJDK 64-Bit Server VM
Java Version: 12.0.1+12
Operating System: Mac OS X
OS Version: 10.14.4
Default Encoding: UTF-8
Language: en
Country: GB
--></g></svg>