<?xml version="1.0" encoding="UTF-8" standalone="no"?><svg xmlns="http://www.w3.org/2000/svg" xmlns:xlink="http://www.w3.org/1999/xlink" contentScriptType="application/ecmascript" contentStyleType="text/css" height="353px" preserveAspectRatio="none" style="width:325px;height:353px;" version="1.1" viewBox="0 0 325 353" width="325px" zoomAndPan="magnify"><defs><filter height="300%" id="f11kjqiweaw93k" width="300%" x="-1" y="-1"><feGaussianBlur result="blurOut" stdDeviation="2.0"/><feColorMatrix in="blurOut" result="blurOut2" type="matrix" values="0 0 0 0 0 0 0 0 0 0 0 0 0 0 0 0 0 0 .4 0"/><feOffset dx="4.0" dy="4.0" in="blurOut2" result="blurOut3"/><feBlend in="SourceGraphic" in2="blurOut3" mode="normal"/></filter></defs><g><!--cluster ohm.softa.a08.filtering--><polygon fill="#FFFFFF" filter="url(#f11kjqiweaw93k)" points="14,16,183,16,190,38.4883,303,38.4883,303,341,14,341,14,16" style="stroke: #000000; stroke-width: 1.5;"/><line style="stroke: #000000; stroke-width: 1.5;" x1="14" x2="190" y1="38.4883" y2="38.4883"/><text fill="#000000" font-family="sans-serif" font-size="14" font-weight="bold" lengthAdjust="spacingAndGlyphs" textLength="163" x="18" y="31.5352">ohm.softa.a08.filtering</text><!--class MealsFilter--><rect fill="#FEFECE" filter="url(#f11kjqiweaw93k)" height="60.9551" id="MealsFilter" style="stroke: #A80036; stroke-width: 1.5;" width="210" x="53" y="43"/><ellipse cx="123.25" cy="59" fill="#B4A7E5" rx="11" ry="11" style="stroke: #A80036; stroke-width: 1.0;"/><path d="M119.6777,55.2651 L119.6777,53.1069 L127.0571,53.1069 L127.0571,55.2651 L124.5918,55.2651 L124.5918,63.3418 L127.0571,63.3418 L127.0571,65.5 L119.6777,65.5 L119.6777,63.3418 L122.1431,63.3418 L122.1431,55.2651 Z "/><text fill="#000000" font-family="sans-serif" font-size="12" font-style="italic" lengthAdjust="spacingAndGlyphs" textLength="61" x="143.75" y="63.5352">MealsFilter</text><line style="stroke: #A80036; stroke-width: 1.5;" x1="54" x2="262" y1="75" y2="75"/><line style="stroke: #A80036; stroke-width: 1.5;" x1="54" x2="262" y1="83" y2="83"/><text fill="#000000" font-family="sans-serif" font-size="11" lengthAdjust="spacingAndGlyphs" textLength="198" x="59" y="97.6348">filter(meals: List&lt;Meal&gt;): List&lt;Meal&gt;</text><!--class NoFilter--><rect fill="#FEFECE" filter="url(#f11kjqiweaw93k)" height="48" id="NoFilter" style="stroke: #A80036; stroke-width: 1.5;" width="76" x="22" y="170.5"/><ellipse cx="37" cy="186.5" fill="#ADD1B2" rx="11" ry="11" style="stroke: #A80036; stroke-width: 1.0;"/><path d="M39.4731,192.6431 Q38.8921,192.9419 38.2529,193.0913 Q37.6138,193.2407 36.9082,193.2407 Q34.4014,193.2407 33.0815,191.5889 Q31.7617,189.937 31.7617,186.8159 Q31.7617,183.6865 33.0815,182.0347 Q34.4014,180.3828 36.9082,180.3828 Q37.6138,180.3828 38.2612,180.5322 Q38.9087,180.6816 39.4731,180.9805 L39.4731,183.7031 Q38.8423,183.1221 38.2488,182.8523 Q37.6553,182.5825 37.0244,182.5825 Q35.6797,182.5825 34.9949,183.6492 Q34.3101,184.7158 34.3101,186.8159 Q34.3101,188.9077 34.9949,189.9744 Q35.6797,191.041 37.0244,191.041 Q37.6553,191.041 38.2488,190.7712 Q38.8423,190.5015 39.4731,189.9204 Z "/><text fill="#000000" font-family="sans-serif" font-size="12" lengthAdjust="spacingAndGlyphs" textLength="44" x="51" y="191.0352">NoFilter</text><line style="stroke: #A80036; stroke-width: 1.5;" x1="23" x2="97" y1="202.5" y2="202.5"/><line style="stroke: #A80036; stroke-width: 1.5;" x1="23" x2="97" y1="210.5" y2="210.5"/><!--class FilterBase--><rect fill="#FEFECE" filter="url(#f11kjqiweaw93k)" height="60.9551" id="FilterBase" style="stroke: #A80036; stroke-width: 1.5;" width="162" x="133" y="164"/><ellipse cx="182.25" cy="180" fill="#A9DCDF" rx="11" ry="11" style="stroke: #A80036; stroke-width: 1.0;"/><path d="M182.3633,175.5981 L181.2095,180.6699 L183.5254,180.6699 Z M180.8691,173.3569 L183.8657,173.3569 L187.2109,185.75 L184.7622,185.75 L183.9985,182.687 L180.7197,182.687 L179.9727,185.75 L177.5239,185.75 Z "/><text fill="#000000" font-family="sans-serif" font-size="12" font-style="italic" lengthAdjust="spacingAndGlyphs" textLength="55" x="202.75" y="184.5352">FilterBase</text><line style="stroke: #A80036; stroke-width: 1.5;" x1="134" x2="294" y1="196" y2="196"/><line style="stroke: #A80036; stroke-width: 1.5;" x1="134" x2="294" y1="204" y2="204"/><polygon fill="#FFFF44" points="144,210.9775,148,214.9775,144,218.9775,140,214.9775" style="stroke: #B38D22; stroke-width: 1.0;"/><text fill="#000000" font-family="sans-serif" font-size="11" lengthAdjust="spacingAndGlyphs" textLength="136" x="153" y="218.6348">include(m: Meal): boolean</text><!--class CategoryFilter--><rect fill="#FEFECE" filter="url(#f11kjqiweaw93k)" height="48" id="CategoryFilter" style="stroke: #A80036; stroke-width: 1.5;" width="111" x="38.5" y="285"/><ellipse cx="53.5" cy="301" fill="#ADD1B2" rx="11" ry="11" style="stroke: #A80036; stroke-width: 1.0;"/><path d="M55.9731,307.1431 Q55.3921,307.4419 54.7529,307.5913 Q54.1138,307.7407 53.4082,307.7407 Q50.9014,307.7407 49.5815,306.0889 Q48.2617,304.437 48.2617,301.3159 Q48.2617,298.1865 49.5815,296.5347 Q50.9014,294.8828 53.4082,294.8828 Q54.1138,294.8828 54.7612,295.0322 Q55.4087,295.1816 55.9731,295.4805 L55.9731,298.2031 Q55.3423,297.6221 54.7488,297.3523 Q54.1553,297.0825 53.5244,297.0825 Q52.1797,297.0825 51.4949,298.1492 Q50.8101,299.2158 50.8101,301.3159 Q50.8101,303.4077 51.4949,304.4744 Q52.1797,305.541 53.5244,305.541 Q54.1553,305.541 54.7488,305.2712 Q55.3423,305.0015 55.9731,304.4204 Z "/><text fill="#000000" font-family="sans-serif" font-size="12" lengthAdjust="spacingAndGlyphs" textLength="79" x="67.5" y="305.5352">CategoryFilter</text><line style="stroke: #A80036; stroke-width: 1.5;" x1="39.5" x2="148.5" y1="317" y2="317"/><line style="stroke: #A80036; stroke-width: 1.5;" x1="39.5" x2="148.5" y1="325" y2="325"/><!--class NotesFilter--><rect fill="#FEFECE" filter="url(#f11kjqiweaw93k)" height="48" id="NotesFilter" style="stroke: #A80036; stroke-width: 1.5;" width="93" x="184.5" y="285"/><ellipse cx="199.5" cy="301" fill="#ADD1B2" rx="11" ry="11" style="stroke: #A80036; stroke-width: 1.0;"/><path d="M201.9731,307.1431 Q201.3921,307.4419 200.7529,307.5913 Q200.1138,307.7407 199.4082,307.7407 Q196.9014,307.7407 195.5815,306.0889 Q194.2617,304.437 194.2617,301.3159 Q194.2617,298.1865 195.5815,296.5347 Q196.9014,294.8828 199.4082,294.8828 Q200.1138,294.8828 200.7612,295.0322 Q201.4087,295.1816 201.9731,295.4805 L201.9731,298.2031 Q201.3423,297.6221 200.7488,297.3523 Q200.1553,297.0825 199.5244,297.0825 Q198.1797,297.0825 197.4949,298.1492 Q196.8101,299.2158 196.8101,301.3159 Q196.8101,303.4077 197.4949,304.4744 Q198.1797,305.541 199.5244,305.541 Q200.1553,305.541 200.7488,305.2712 Q201.3423,305.0015 201.9731,304.4204 Z "/><text fill="#000000" font-family="sans-serif" font-size="12" lengthAdjust="spacingAndGlyphs" textLength="61" x="213.5" y="305.5352">NotesFilter</text><line style="stroke: #A80036; stroke-width: 1.5;" x1="185.5" x2="276.5" y1="317" y2="317"/><line style="stroke: #A80036; stroke-width: 1.5;" x1="185.5" x2="276.5" y1="325" y2="325"/><!--link MealsFilter to NoFilter--><path d="M120.6518,119.6136 C106.6201,136.9384 91.2352,155.934 79.4715,170.4587 " fill="none" id="MealsFilter-NoFilter" style="stroke: #A80036; stroke-width: 1.0; stroke-dasharray: 7.0,7.0;"/><polygon fill="none" points="115.2431,115.1696,133.2705,104.0334,126.1224,123.981,115.2431,115.1696" style="stroke: #A80036; stroke-width: 1.0;"/><!--link MealsFilter to FilterBase--><path d="M180.6175,122.37 C187.126,136.4329 194.0376,151.367 199.8734,163.9764 " fill="none" id="MealsFilter-FilterBase" style="stroke: #A80036; stroke-width: 1.0; stroke-dasharray: 7.0,7.0;"/><polygon fill="none" points="174.1788,125.1239,172.1312,104.0334,186.884,119.2437,174.1788,125.1239" style="stroke: #A80036; stroke-width: 1.0;"/><!--link FilterBase to CategoryFilter--><path d="M167.1377,239.2145 C150.8792,254.7278 133.2673,271.5325 119.4008,284.7634 " fill="none" id="FilterBase-CategoryFilter" style="stroke: #A80036; stroke-width: 1.0;"/><polygon fill="none" points="162.54,233.9261,181.8422,225.1839,172.2047,244.055,162.54,233.9261" style="stroke: #A80036; stroke-width: 1.0;"/><!--link FilterBase to NotesFilter--><path d="M221.5326,245.2346 C223.5731,258.9779 225.689,273.2288 227.4016,284.7634 " fill="none" id="FilterBase-NotesFilter" style="stroke: #A80036; stroke-width: 1.0;"/><polygon fill="none" points="214.5689,245.9951,218.5557,225.1839,228.4171,243.939,214.5689,245.9951" style="stroke: #A80036; stroke-width: 1.0;"/><!--
@startuml FilteringStrategies

package ohm.softa.a08.filtering {

    interface MealsFilter {
        filter(meals: List<Meal>): List<Meal>
    }

    class NoFilter implements MealsFilter {

    }

    abstract class FilterBase implements MealsFilter {
        #include(m: Meal): boolean
    }

    class CategoryFilter extends FilterBase {

    }

    class NotesFilter extends FilterBase {

    }
}

@enduml

PlantUML version 1.2019.03(Sun Mar 10 12:04:44 CET 2019)
(GPL source distribution)
Java Runtime: OpenJDK Runtime Environment
JVM: OpenJDK 64-Bit Server VM
Java Version: 12.0.1+12
Operating System: Mac OS X
OS Version: 10.14.4
Default Encoding: UTF-8
Language: en
Country: GB
--></g></svg>