<?xml version="1.0" encoding="UTF-8" standalone="no"?><svg xmlns="http://www.w3.org/2000/svg" xmlns:xlink="http://www.w3.org/1999/xlink" contentScriptType="application/ecmascript" contentStyleType="text/css" height="212px" preserveAspectRatio="none" style="width:573px;height:212px;" version="1.1" viewBox="0 0 573 212" width="573px" zoomAndPan="magnify"><defs><filter height="300%" id="fu0qwx7zan3j3" width="300%" x="-1" y="-1"><feGaussianBlur result="blurOut" stdDeviation="2.0"/><feColorMatrix in="blurOut" result="blurOut2" type="matrix" values="0 0 0 0 0 0 0 0 0 0 0 0 0 0 0 0 0 0 .4 0"/><feOffset dx="4.0" dy="4.0" in="blurOut2" result="blurOut3"/><feBlend in="SourceGraphic" in2="blurOut3" mode="normal"/></filter></defs><g><!--cluster ohm.softa.a08--><polygon fill="#FFFFFF" filter="url(#fu0qwx7zan3j3)" points="14,16,121,16,128,38.4883,551,38.4883,551,200,14,200,14,16" style="stroke: #000000; stroke-width: 1.5;"/><line style="stroke: #000000; stroke-width: 1.5;" x1="14" x2="128" y1="38.4883" y2="38.4883"/><text fill="#000000" font-family="sans-serif" font-size="14" font-weight="bold" lengthAdjust="spacingAndGlyphs" textLength="101" x="18" y="31.5352">ohm.softa.a08</text><!--cluster services--><polygon fill="#FFFFFF" filter="url(#fu0qwx7zan3j3)" points="22,43,86,43,93,65.4883,258,65.4883,258,192,22,192,22,43" style="stroke: #000000; stroke-width: 1.5;"/><line style="stroke: #000000; stroke-width: 1.5;" x1="22" x2="93" y1="65.4883" y2="65.4883"/><text fill="#000000" font-family="sans-serif" font-size="14" font-weight="bold" lengthAdjust="spacingAndGlyphs" textLength="58" x="26" y="58.5352">services</text><!--class OpenMensaAPI--><rect fill="#FEFECE" filter="url(#fu0qwx7zan3j3)" height="60.9551" id="OpenMensaAPI" style="stroke: #A80036; stroke-width: 1.5;" width="233" x="310" y="96.5"/><ellipse cx="379.25" cy="112.5" fill="#B4A7E5" rx="11" ry="11" style="stroke: #A80036; stroke-width: 1.0;"/><path d="M375.6777,108.7651 L375.6777,106.6069 L383.0571,106.6069 L383.0571,108.7651 L380.5918,108.7651 L380.5918,116.8418 L383.0571,116.8418 L383.0571,119 L375.6777,119 L375.6777,116.8418 L378.1431,116.8418 L378.1431,108.7651 Z "/><text fill="#000000" font-family="sans-serif" font-size="12" font-style="italic" lengthAdjust="spacingAndGlyphs" textLength="86" x="399.75" y="117.0352">OpenMensaAPI</text><line style="stroke: #A80036; stroke-width: 1.5;" x1="311" x2="542" y1="128.5" y2="128.5"/><line style="stroke: #A80036; stroke-width: 1.5;" x1="311" x2="542" y1="136.5" y2="136.5"/><text fill="#000000" font-family="sans-serif" font-size="11" lengthAdjust="spacingAndGlyphs" textLength="221" x="316" y="151.1348">getMeals(date: String): Call&lt;List&lt;Meal&gt;&gt;</text><!--class OpenMensaAPIService--><rect fill="#FEFECE" filter="url(#fu0qwx7zan3j3)" height="112.7754" id="OpenMensaAPIService" style="stroke: #A80036; stroke-width: 1.5;" width="220" x="30" y="70.5"/><ellipse cx="72.9" cy="86.5" fill="#ADD1B2" rx="11" ry="11" style="stroke: #A80036; stroke-width: 1.0;"/><path d="M75.3731,92.6431 Q74.7921,92.9419 74.1529,93.0913 Q73.5138,93.2407 72.8082,93.2407 Q70.3014,93.2407 68.9815,91.5889 Q67.6617,89.937 67.6617,86.8159 Q67.6617,83.6865 68.9815,82.0347 Q70.3014,80.3828 72.8082,80.3828 Q73.5138,80.3828 74.1612,80.5322 Q74.8087,80.6816 75.3731,80.9805 L75.3731,83.7031 Q74.7423,83.1221 74.1488,82.8523 Q73.5553,82.5825 72.9244,82.5825 Q71.5797,82.5825 70.8949,83.6492 Q70.2101,84.7158 70.2101,86.8159 Q70.2101,88.9077 70.8949,89.9744 Q71.5797,91.041 72.9244,91.041 Q73.5553,91.041 74.1488,90.7712 Q74.7423,90.5015 75.3731,89.9204 Z "/><text fill="#000000" font-family="sans-serif" font-size="12" lengthAdjust="spacingAndGlyphs" textLength="126" x="93.1" y="91.0352">OpenMensaAPIService</text><line style="stroke: #A80036; stroke-width: 1.5;" x1="31" x2="249" y1="102.5" y2="102.5"/><rect fill="none" height="6" style="stroke: #C82930; stroke-width: 1.0;" width="6" x="38" y="111.4775"/><text fill="#000000" font-family="sans-serif" font-size="11" lengthAdjust="spacingAndGlyphs" text-decoration="underline" textLength="169" x="50" y="117.1348">instance: OpenMensaAPIService</text><line style="stroke: #000000; stroke-width: 1.0;" x1="50" x2="219" y1="119.1348" y2="119.1348"/><rect fill="none" height="6" style="stroke: #C82930; stroke-width: 1.0;" width="6" x="38" y="124.4326"/><text fill="#000000" font-family="sans-serif" font-size="11" lengthAdjust="spacingAndGlyphs" textLength="184" x="50" y="130.0898">mensaApiInstance: OpenMensaAPI</text><line style="stroke: #A80036; stroke-width: 1.5;" x1="31" x2="249" y1="136.4102" y2="136.4102"/><rect fill="#F24D5C" height="6" style="stroke: #C82930; stroke-width: 1.0;" width="6" x="38" y="145.3877"/><text fill="#000000" font-family="sans-serif" font-size="11" lengthAdjust="spacingAndGlyphs" textLength="126" x="50" y="151.0449">OpenMensaAPIService()</text><ellipse cx="41" cy="161.3428" fill="#84BE84" rx="3" ry="3" style="stroke: #038048; stroke-width: 1.0;"/><text fill="#000000" font-family="sans-serif" font-size="11" lengthAdjust="spacingAndGlyphs" text-decoration="underline" textLength="194" x="50" y="164">getInstance(): OpenMensaAPIService</text><line style="stroke: #000000; stroke-width: 1.0;" x1="50" x2="244" y1="166" y2="166"/><ellipse cx="41" cy="174.2979" fill="#84BE84" rx="3" ry="3" style="stroke: #038048; stroke-width: 1.0;"/><text fill="#000000" font-family="sans-serif" font-size="11" lengthAdjust="spacingAndGlyphs" textLength="129" x="50" y="176.9551">getApi(): OpenMensaAPI</text><!--link OpenMensaAPIService to OpenMensaAPI--><path d="M263.6501,127 C278.8833,127 294.418,127 309.5474,127 " fill="none" id="OpenMensaAPIService-OpenMensaAPI" style="stroke: #A80036; stroke-width: 1.0;"/><polygon fill="#FFFFFF" points="250.3586,127,256.3586,131,262.3586,127,256.3586,123,250.3586,127" style="stroke: #A80036; stroke-width: 1.0;"/><!--
@startuml OpenMensaAPIService

left to right direction

package ohm.softa.a08 {

    interface OpenMensaAPI {
        getMeals(date: String): Call<List<Meal>>
    }

    package services {
        class OpenMensaAPIService {
            -{static} instance: OpenMensaAPIService
            -mensaApiInstance: OpenMensaAPI
            -OpenMensaAPIService()
            +{static} getInstance(): OpenMensaAPIService
            +getApi(): OpenMensaAPI
        }
    }

    OpenMensaAPIService o- - OpenMensaAPI
}

@enduml

PlantUML version 1.2019.03(Sun Mar 10 12:04:44 CET 2019)
(GPL source distribution)
Java Runtime: OpenJDK Runtime Environment
JVM: OpenJDK 64-Bit Server VM
Java Version: 12.0.1+12
Operating System: Mac OS X
OS Version: 10.14.4
Default Encoding: UTF-8
Language: en
Country: GB
--></g></svg>